<svg xmlns="http://www.w3.org/2000/svg" width="900" height="900" viewBox="0 0 900 900"><rect width="100%" height="100%" fill="#f9e4dc"/><path fill="#7d2734" d="M224.08 394.29v59.64q0 7.81-1.92 14.08-1.92 6.28-5.73 10.69-3.8 4.42-9.5 6.79-5.7 2.36-13.25 2.36-3.45 0-6.78-.41-3.33-.42-6.98-1.31.19-2.56.45-5.12t.45-5.12q.19-1.41 1.12-2.28.93-.86 2.65-.86 1.09 0 2.85.45t4.45.45q3.65 0 6.46-1.06 2.82-1.06 4.71-3.36t2.85-5.98.96-8.93v-60.03zm29.7 52.16h29.82q0-3.08-.86-5.8-.87-2.72-2.59-4.76-1.73-2.05-4.39-3.24-2.65-1.18-6.17-1.18-6.85 0-10.79 3.9-3.93 3.91-5.02 11.08m40.32 9.53h-40.64q.38 5.06 1.79 8.74t3.71 6.08q2.31 2.4 5.47 3.58 3.17 1.19 7.01 1.19t6.63-.9q2.78-.9 4.86-1.98 2.08-1.09 3.65-1.99 1.57-.89 3.04-.89 1.98 0 2.94 1.47l4.55 5.76q-2.63 3.07-5.89 5.15-3.27 2.08-6.82 3.33t-7.23 1.76-7.14.51q-6.84 0-12.73-2.27t-10.24-6.72-6.85-11.01-2.5-15.2q0-6.72 2.18-12.64t6.24-10.3q4.06-4.39 9.92-6.95t13.22-2.56q6.2 0 11.45 1.99 5.25 1.98 9.03 5.79 3.77 3.81 5.92 9.34 2.14 5.54 2.14 12.64 0 3.59-.77 4.83-.77 1.25-2.94 1.25m97.28-34.81h12.03l-20.86 65.66h-12.68q-2.17 0-3-2.82l-11.78-37.95q-.58-1.92-1.06-3.81-.48-1.88-.8-3.8-.38 1.92-.86 3.87t-1.06 3.87l-11.96 37.82q-.77 2.82-3.4 2.82h-12.16l-20.8-65.66h12.61q1.73 0 2.95.83 1.21.83 1.6 2.11l9.4 35.07q.71 2.88 1.25 5.63.55 2.76.93 5.51.7-2.75 1.5-5.51.8-2.75 1.7-5.63l10.88-35.2q.38-1.28 1.5-2.11t2.72-.83h6.98q1.66 0 2.85.83 1.18.83 1.57 2.11l10.56 35.2q.83 2.88 1.56 5.67.74 2.78 1.44 5.53.84-5.44 2.37-11.2l9.67-35.07q.44-1.28 1.6-2.11 1.15-.83 2.75-.83m33.47 25.28h29.82q0-3.08-.86-5.8t-2.59-4.76q-1.73-2.05-4.39-3.24-2.65-1.18-6.17-1.18-6.85 0-10.79 3.9-3.93 3.91-5.02 11.08m40.32 9.53h-40.64q.38 5.06 1.79 8.74t3.71 6.08q2.31 2.4 5.48 3.58 3.16 1.19 7 1.19t6.63-.9q2.78-.9 4.86-1.98 2.08-1.09 3.65-1.99 1.57-.89 3.04-.89 1.98 0 2.94 1.47l4.55 5.76q-2.63 3.07-5.89 5.15t-6.82 3.33q-3.55 1.25-7.23 1.76t-7.13.51q-6.85 0-12.74-2.27t-10.24-6.72-6.85-11.01q-2.49-6.56-2.49-15.2 0-6.72 2.17-12.64 2.18-5.92 6.24-10.3 4.07-4.39 9.92-6.95 5.86-2.56 13.22-2.56 6.21 0 11.45 1.99 5.25 1.98 9.03 5.79 3.77 3.81 5.92 9.34 2.14 5.54 2.14 12.64 0 3.59-.77 4.83-.76 1.25-2.94 1.25m15.74-64.25h15.81v95.1h-15.81zm31.81 0h15.81v95.1h-15.81zm44.1 54.72h29.82q0-3.08-.86-5.8-.87-2.72-2.59-4.76-1.73-2.05-4.39-3.24-2.65-1.18-6.17-1.18-6.85 0-10.79 3.9-3.93 3.91-5.02 11.08m40.32 9.53H556.5q.38 5.06 1.79 8.74t3.71 6.08q2.31 2.4 5.47 3.58 3.17 1.19 7.01 1.19t6.63-.9q2.78-.9 4.86-1.98 2.08-1.09 3.65-1.99 1.57-.89 3.04-.89 1.98 0 2.94 1.47l4.55 5.76q-2.63 3.07-5.89 5.15-3.27 2.08-6.82 3.33t-7.23 1.76-7.14.51q-6.84 0-12.73-2.27t-10.24-6.72-6.85-11.01-2.5-15.2q0-6.72 2.18-12.64t6.24-10.3q4.06-4.39 9.92-6.95t13.22-2.56q6.2 0 11.45 1.99 5.25 1.98 9.03 5.79 3.77 3.81 5.92 9.34 2.14 5.54 2.14 12.64 0 3.59-.77 4.83-.77 1.25-2.94 1.25m29.5-30.85.96 7.43q3.07-5.89 7.3-9.25 4.22-3.36 9.98-3.36 4.55 0 7.3 1.98l-1.03 11.84q-.32 1.16-.92 1.64-.61.48-1.64.48-.96 0-2.84-.32-1.89-.32-3.68-.32-2.63 0-4.68.76-2.04.77-3.68 2.21-1.63 1.44-2.88 3.49-1.24 2.05-2.33 4.67v40.45h-15.81v-65.66h9.28q2.43 0 3.39.86t1.28 3.1m80.77-3.96h12.67l-35.77 83.71q-.71 1.66-1.83 2.53-1.12.86-3.42.86h-11.78l12.29-26.37-26.56-60.73h13.89q1.85 0 2.91.89 1.06.9 1.57 2.05l13.95 34.05q.7 1.73 1.18 3.45.48 1.73.93 3.52l1.15-3.55q.58-1.76 1.28-3.49l13.19-33.98q.51-1.28 1.69-2.11 1.19-.83 2.66-.83"/></svg>